# xmcd
#
# Track frame offsets:
#	150
#	13650
#	24240
#	35614
#	53150
#	69941
#	82484
#	101767
#	123562
#	136711
#
# Disc length: 2009 seconds
#
# Revision: 1
# Processed by: cddbd v1.5.2PL0 Copyright (c) Steve Scherf et al.
# Submitted via: audiograbber 1.83.01
#
DISCID=8207d70a
DTITLE=Camaros - Glad, Evil and Bad
DYEAR=1900
DGENRE=
TTITLE0=Settlin' Down
TTITLE1=You Gotta Love That Jesus
TTITLE2=Solid Comfort
TTITLE3=Evil and Bad
TTITLE4=Change
TTITLE5=Guitarman
TTITLE6=How Long
TTITLE7=I'm Glad
TTITLE8=Stop That Movin' Train
TTITLE9=Breathe
EXTD=
EXTT0=
EXTT1=
EXTT2=
EXTT3=
EXTT4=
EXTT5=
EXTT6=
EXTT7=
EXTT8=
EXTT9=
PLAYORDER=
